<svg width="1412" height="770" viewBox="0 0 1412 770" fill="none" xmlns="http://www.w3.org/2000/svg">
<circle cx="285.5" cy="27.5" r="27.5" fill="black"/>
<circle cx="285.5" cy="27.5" r="22.5" fill="white" fill-opacity="0.95"/>
<circle cx="840.5" cy="604.5" r="27.5" fill="black"/>
<circle cx="840.5" cy="604.5" r="22.5" fill="white" fill-opacity="0.95"/>
<circle cx="285.5" cy="372.5" r="27.5" fill="black"/>
<circle cx="285.5" cy="372.5" r="22.5" fill="white" fill-opacity="0.95"/>
<circle cx="563.5" cy="372.5" r="27.5" fill="black"/>
<circle cx="563.5" cy="372.5" r="22.5" fill="white" fill-opacity="0.95"/>
<circle cx="1148.5" cy="27.5" r="27.5" fill="black"/>
<circle cx="1148.5" cy="27.5" r="22.5" fill="white" fill-opacity="0.95"/>
<circle cx="128.5" cy="372.5" r="27.5" fill="black"/>
<circle cx="128.5" cy="372.5" r="22.5" fill="white" fill-opacity="0.95"/>
<circle cx="285.5" cy="185.5" r="27.5" fill="black"/>
<circle cx="285.5" cy="185.5" r="22.5" fill="white" fill-opacity="0.95"/>
<circle cx="563.5" cy="185.5" r="27.5" fill="black"/>
<circle cx="563.5" cy="185.5" r="22.5" fill="white" fill-opacity="0.95"/>
<circle cx="840.5" cy="185.5" r="27.5" fill="black"/>
<circle cx="840.5" cy="185.5" r="22.5" fill="white" fill-opacity="0.95"/>
<circle cx="1148.5" cy="185.5" r="27.5" fill="black"/>
<circle cx="1148.5" cy="185.5" r="22.5" fill="white" fill-opacity="0.95"/>
<circle cx="1261.5" cy="185.5" r="27.5" fill="black"/>
<circle cx="1261.5" cy="185.5" r="22.5" fill="white" fill-opacity="0.95"/>
<circle cx="1261.5" cy="278.5" r="27.5" fill="black"/>
<circle cx="1261.5" cy="278.5" r="22.5" fill="white" fill-opacity="0.95"/>
<circle cx="1148.5" cy="278.5" r="27.5" fill="black"/>
<circle cx="1148.5" cy="278.5" r="22.5" fill="white" fill-opacity="0.95"/>
<circle cx="840.5" cy="278.5" r="27.5" fill="black"/>
<circle cx="840.5" cy="278.5" r="22.5" fill="white" fill-opacity="0.95"/>
<circle cx="424.5" cy="372.5" r="27.5" fill="black"/>
<circle cx="424.5" cy="372.5" r="22.5" fill="white" fill-opacity="0.95"/>
<circle cx="424.5" cy="604.5" r="27.5" fill="black"/>
<circle cx="424.5" cy="604.5" r="22.5" fill="white" fill-opacity="0.95"/>
<circle cx="128.5" cy="736.5" r="27.5" fill="black"/>
<circle cx="128.5" cy="736.5" r="22.5" fill="white" fill-opacity="0.95"/>
<circle cx="840.5" cy="742.5" r="27.5" fill="black"/>
<circle cx="840.5" cy="742.5" r="22.5" fill="white" fill-opacity="0.95"/>
<circle cx="1011.5" cy="604.5" r="27.5" fill="black"/>
<circle cx="1011.5" cy="604.5" r="22.5" fill="white" fill-opacity="0.95"/>
<circle cx="1148.5" cy="437.5" r="27.5" fill="black"/>
<circle cx="1148.5" cy="437.5" r="22.5" fill="white" fill-opacity="0.95"/>
<circle cx="1261.5" cy="437.5" r="27.5" fill="black"/>
<circle cx="1261.5" cy="437.5" r="22.5" fill="white" fill-opacity="0.95"/>
<circle cx="1384.5" cy="437.5" r="27.5" fill="black"/>
<circle cx="1384.5" cy="437.5" r="22.5" fill="white" fill-opacity="0.95"/>
<circle cx="932.5" cy="185.5" r="27.5" fill="black"/>
<circle cx="932.5" cy="185.5" r="22.5" fill="white" fill-opacity="0.95"/>
<circle cx="932.5" cy="278.5" r="27.5" fill="black"/>
<circle cx="932.5" cy="278.5" r="22.5" fill="white" fill-opacity="0.95"/>
<circle cx="563.5" cy="278.5" r="27.5" fill="black"/>
<circle cx="563.5" cy="278.5" r="22.5" fill="white" fill-opacity="0.95"/>
<circle cx="1011.5" cy="507.5" r="27.5" fill="black"/>
<circle cx="1011.5" cy="507.5" r="22.5" fill="white" fill-opacity="0.95"/>
<circle cx="1105.5" cy="604.5" r="27.5" fill="black"/>
<circle cx="1105.5" cy="604.5" r="22.5" fill="white" fill-opacity="0.95"/>
<circle cx="1261.5" cy="734.5" r="27.5" fill="black"/>
<circle cx="1261.5" cy="734.5" r="22.5" fill="white" fill-opacity="0.95"/>
<circle cx="1384.5" cy="734.5" r="27.5" fill="black"/>
<circle cx="1384.5" cy="734.5" r="22.5" fill="white" fill-opacity="0.95"/>
<circle cx="932.5" cy="27.5" r="27.5" fill="black"/>
<circle cx="932.5" cy="27.5" r="22.5" fill="white" fill-opacity="0.95"/>
<circle cx="27.5" cy="372.5" r="27.5" fill="black"/>
<circle cx="27.5" cy="372.5" r="22.5" fill="white" fill-opacity="0.95"/>
<circle cx="128.5" cy="445.5" r="27.5" fill="black"/>
<circle cx="128.5" cy="445.5" r="22.5" fill="white" fill-opacity="0.95"/>
<circle cx="285.5" cy="445.5" r="27.5" fill="black"/>
<circle cx="285.5" cy="445.5" r="22.5" fill="white" fill-opacity="0.95"/>
<circle cx="424.5" cy="445.5" r="27.5" fill="black"/>
<circle cx="424.5" cy="445.5" r="22.5" fill="white" fill-opacity="0.95"/>
<circle cx="563.5" cy="445.5" r="27.5" fill="black"/>
<circle cx="563.5" cy="445.5" r="22.5" fill="white" fill-opacity="0.95"/>
<circle cx="717.5" cy="507.5" r="27.5" fill="black"/>
<circle cx="717.5" cy="507.5" r="22.5" fill="white" fill-opacity="0.95"/>
<circle cx="717.5" cy="604.5" r="27.5" fill="black"/>
<circle cx="717.5" cy="604.5" r="22.5" fill="white" fill-opacity="0.95"/>
<circle cx="717.5" cy="742.5" r="27.5" fill="black"/>
<circle cx="717.5" cy="742.5" r="22.5" fill="white" fill-opacity="0.95"/>
<circle cx="27.5" cy="27.5" r="27.5" fill="black"/>
<circle cx="27.5" cy="27.5" r="22.5" fill="white" fill-opacity="0.95"/>
</svg>
